<?xml version="1.0" standalone="no"?>
<!DOCTYPE svg PUBLIC "-//W3C//DTD SVG 20010904//EN"
 "http://www.w3.org/TR/2001/REC-SVG-20010904/DTD/svg10.dtd">
<svg version="1.0" xmlns="http://www.w3.org/2000/svg"
 width="2560.000000pt" height="626.000000pt" viewBox="0 0 2560.000000 626.000000"
 preserveAspectRatio="xMidYMid meet">

<g transform="translate(0.000000,626.000000) scale(0.100000,-0.100000)"
fill="#ff0101" stroke="none">
<path d="M2815 6173 c-111 -9 -334 -46 -445 -73 -428 -104 -801 -283 -1165
-559 -129 -97 -439 -407 -536 -536 -371 -489 -575 -1010 -630 -1609 -16 -179
-6 -521 21 -701 101 -672 404 -1264 886 -1735 209 -205 380 -334 631 -477 126
-72 371 -188 380 -179 3 3 0 64 -6 137 -14 166 -14 468 -1 579 6 47 94 440
197 874 l186 789 -27 76 c-125 364 -61 756 158 976 214 213 556 185 668 -55
83 -178 63 -360 -92 -860 -86 -278 -120 -417 -120 -496 0 -127 42 -225 133
-312 94 -88 195 -125 341 -124 431 4 785 380 901 956 114 570 2 1031 -324
1339 -166 157 -361 254 -616 309 -134 29 -422 31 -564 4 -205 -38 -410 -123
-562 -233 -98 -70 -248 -224 -311 -319 -291 -437 -303 -1011 -29 -1407 28 -40
51 -82 51 -93 0 -42 -93 -396 -110 -416 -16 -20 -21 -21 -58 -10 -106 32 -288
193 -383 338 -105 158 -186 358 -231 564 -19 91 -22 133 -22 315 0 190 3 223
28 340 75 359 222 645 458 890 319 332 716 516 1243 576 135 15 432 12 566 -6
628 -83 1153 -443 1418 -974 214 -425 237 -964 65 -1491 -205 -627 -661 -1055
-1234 -1156 -118 -21 -325 -20 -425 1 -107 22 -209 63 -298 118 -68 43 -163
132 -198 186 -14 22 -20 4 -113 -355 -55 -209 -114 -421 -132 -472 -55 -153
-180 -408 -291 -591 -24 -40 -42 -75 -39 -78 16 -17 306 -82 477 -108 143 -22
543 -31 695 -16 609 61 1154 280 1624 652 135 107 373 345 480 479 183 231
382 579 474 830 137 378 190 674 190 1075 0 266 -11 383 -59 621 -90 446 -310
913 -605 1284 -104 131 -343 371 -475 475 -464 370 -1022 596 -1614 655 -94 9
-461 11 -556 3z"/>
<path d="M10410 5163 c-51 -8 -147 -47 -198 -80 -70 -47 -117 -103 -158 -188
-90 -189 -54 -401 93 -548 185 -185 476 -191 666 -15 162 150 202 381 101 580
-34 67 -135 168 -202 202 -89 45 -207 64 -302 49z"/>
<path d="M7240 3240 l0 -1770 410 0 410 0 0 595 0 595 428 0 c451 0 519 5 682
50 98 27 262 106 346 166 178 127 322 326 389 535 43 137 58 243 58 404 0 224
-37 392 -128 569 -137 269 -371 462 -670 555 -214 66 -188 64 -1097 68 l-828
4 0 -1771z m1607 1017 c238 -70 356 -259 322 -517 -26 -190 -147 -327 -334
-375 -48 -12 -128 -15 -417 -15 l-358 0 0 466 0 466 368 -5 c290 -3 378 -8
419 -20z"/>
<path d="M13790 4410 l0 -400 -130 0 -130 0 0 -255 0 -255 130 0 129 0 3 -767
c4 -853 0 -807 73 -962 126 -267 475 -373 1033 -315 l62 7 0 301 0 301 -98 1
c-156 1 -229 36 -266 126 -14 32 -16 121 -16 673 l0 635 190 0 190 0 0 255 0
255 -190 0 -190 0 0 400 0 400 -395 0 -395 0 0 -400z"/>
<path d="M24360 4410 l0 -400 -120 0 -120 0 0 -255 0 -255 119 0 120 0 4 -747
c4 -839 4 -828 77 -979 92 -189 272 -293 562 -324 150 -16 402 -8 536 16 l32
6 0 297 0 296 -124 1 c-118 0 -128 2 -182 30 -47 24 -62 38 -83 79 l-26 49 -3
638 -3 638 211 0 210 0 0 255 0 255 -210 0 -210 0 0 400 0 400 -395 0 -395 0
0 -400z"/>
<path d="M12470 4069 c-228 -35 -459 -181 -587 -371 -14 -21 -30 -38 -34 -38
-5 0 -9 79 -9 175 l0 175 -390 0 -390 0 0 -1270 0 -1270 405 0 404 0 3 778 c3
764 4 778 24 832 37 95 65 142 120 200 184 193 517 163 637 -57 57 -105 57
-107 57 -965 l0 -788 405 0 406 0 -4 912 c-3 882 -4 916 -24 1003 -47 205
-127 351 -263 479 -94 88 -215 153 -345 187 -94 24 -314 34 -415 18z"/>
<path d="M16080 4073 c-504 -54 -904 -367 -1073 -839 -57 -160 -72 -261 -72
-494 0 -230 9 -295 62 -464 126 -399 438 -703 845 -820 154 -44 291 -59 493
-53 192 6 318 28 455 80 307 116 556 347 667 621 18 45 33 91 33 104 l0 22
-389 0 -389 0 -30 -53 c-83 -147 -257 -220 -469 -196 -142 16 -237 62 -327
159 -31 34 -70 88 -86 120 -30 60 -80 216 -80 251 0 18 25 19 910 19 l910 0 0
79 c0 43 -5 125 -10 182 -57 558 -312 970 -723 1164 -208 98 -487 144 -727
118z m268 -578 c177 -42 308 -177 357 -370 8 -32 15 -72 15 -87 l0 -28 -500 0
-500 0 6 28 c64 268 188 412 395 456 84 19 150 19 227 1z"/>
<path d="M20290 4073 c-66 -7 -195 -34 -260 -55 -457 -147 -764 -500 -862
-990 -31 -161 -31 -415 0 -576 108 -542 466 -908 1000 -1023 126 -27 392 -37
529 -19 452 56 818 315 973 687 15 37 31 83 35 101 l7 32 -389 0 -388 0 -45
-67 c-87 -129 -206 -185 -390 -185 -219 0 -375 88 -475 267 -36 64 -69 159
-84 238 l-8 47 915 0 915 0 -7 123 c-27 477 -159 822 -410 1073 -193 193 -434
308 -721 343 -84 10 -256 12 -335 4z m273 -578 c176 -37 307 -173 357 -371 11
-42 20 -85 20 -96 0 -17 -21 -18 -500 -18 -359 0 -500 3 -500 11 0 31 36 143
66 206 102 214 320 319 557 268z"/>
<path d="M22745 4074 c-22 -3 -88 -14 -148 -25 -380 -70 -641 -265 -737 -549
-31 -89 -39 -311 -16 -420 25 -118 86 -231 170 -314 148 -148 329 -215 792
-296 126 -22 264 -48 306 -59 182 -47 268 -124 268 -241 0 -121 -79 -201 -235
-239 -71 -18 -257 -15 -330 4 -138 36 -249 143 -279 268 l-6 27 -386 0 -385 0
7 -37 c33 -193 98 -327 223 -457 112 -116 234 -191 414 -255 247 -87 602 -112
901 -65 432 69 725 287 813 605 25 91 25 357 0 449 -47 168 -152 309 -300 400
-154 95 -306 140 -702 210 -285 50 -365 70 -441 107 -79 38 -109 81 -109 153
1 96 63 167 181 205 78 25 264 26 344 2 120 -36 196 -113 221 -223 l12 -54
370 0 370 0 -6 60 c-10 95 -64 243 -119 328 -139 213 -357 338 -688 397 -92
16 -417 28 -505 19z"/>
<path d="M19030 4039 c-100 -10 -208 -44 -288 -91 -76 -45 -198 -166 -261
-260 -28 -43 -56 -78 -61 -78 -6 0 -10 78 -10 200 l0 200 -382 -2 -383 -3 -3
-1267 -2 -1268 404 0 405 0 3 663 c4 647 4 664 26 742 35 126 85 218 161 294
116 117 257 171 454 174 l107 1 0 347 0 347 -31 6 c-17 3 -37 5 -43 5 -6 -1
-49 -5 -96 -10z"/>
<path d="M10087 4003 c-4 -3 -7 -575 -7 -1270 l0 -1263 405 0 405 0 0 1270 0
1270 -398 0 c-219 0 -402 -3 -405 -7z"/>
</g>
</svg>
